# MagicaVoxel @ Ephtracy

# group
o 

# material
mtllib tank.mtl
usemtl palette

# normals
vn -1 0 0
vn 1 0 0
vn 0 0 1
vn 0 0 -1
vn 0 -1 0
vn 0 1 0

# texcoords
vt 0.673828 0.5
vt 0.677734 0.5
vt 0.681641 0.5
vt 0.916016 0.5
vt 0.986328 0.5
vt 0.990234 0.5
vt 0.994141 0.5

# verts
v -0.4 0 0.3
v -0.4 0 0.2
v -0.4 0 0.1
v -0.4 0 0
v -0.4 0 -0.1
v -0.4 0 -0.2
v -0.4 0 -0.3
v -0.4 0.1 0.4
v -0.4 0.1 0.3
v -0.4 0.1 0.2
v -0.4 0.1 0.1
v -0.4 0.1 0
v -0.4 0.1 -0.1
v -0.4 0.1 -0.2
v -0.4 0.1 -0.3
v -0.4 0.1 -0.4
v -0.4 0.2 0.4
v -0.4 0.2 0.3
v -0.4 0.2 0.2
v -0.4 0.2 0.1
v -0.4 0.2 0
v -0.4 0.2 -0.2
v -0.4 0.2 -0.3
v -0.4 0.2 -0.4
v -0.4 0.3 0.4
v -0.4 0.3 -0.4
v -0.3 0.3 0.2
v -0.3 0.3 -0.4
v -0.3 0.4 0.2
v -0.3 0.4 -0.4
v -0.2 0.4 0
v -0.2 0.4 -0.3
v -0.2 0.6 0
v -0.2 0.6 -0.3
v -0.1 0.5 0.4
v -0.1 0.5 0.3
v -0.1 0.5 0
v -0.1 0.6 0.4
v -0.1 0.6 0.3
v -0.1 0.6 0
v 0.1 0 0.3
v 0.1 0 0.2
v 0.1 0 0.1
v 0.1 0 0
v 0.1 0 -0.1
v 0.1 0 -0.2
v 0.1 0 -0.3
v 0.1 0.1 0.4
v 0.1 0.1 0.3
v 0.1 0.1 0.2
v 0.1 0.1 0.1
v 0.1 0.1 0
v 0.1 0.1 -0.1
v 0.1 0.1 -0.2
v 0.1 0.1 -0.3
v 0.1 0.1 -0.4
v 0.1 0.2 0.4
v 0.1 0.2 0.3
v 0.1 0.2 0.1
v 0.1 0.2 -0.3
v 0.1 0.2 -0.4
v 0.1 0.3 0.4
v 0.1 0.3 0.3
v -0.2 0 0.3
v -0.2 0 0.2
v -0.2 0 0.1
v -0.2 0 0
v -0.2 0 -0.1
v -0.2 0 -0.2
v -0.2 0 -0.3
v -0.2 0.1 0.4
v -0.2 0.1 0.3
v -0.2 0.1 0.2
v -0.2 0.1 0.1
v -0.2 0.1 0
v -0.2 0.1 -0.1
v -0.2 0.1 -0.2
v -0.2 0.1 -0.3
v -0.2 0.1 -0.4
v -0.2 0.2 0.4
v -0.2 0.2 0.3
v -0.2 0.2 0.1
v -0.2 0.2 -0.3
v -0.2 0.2 -0.4
v -0.2 0.3 0.4
v -0.2 0.3 0.3
v 0 0.5 0.4
v 0 0.5 0.3
v 0 0.5 0
v 0 0.6 0.4
v 0 0.6 0.3
v 0 0.6 0
v 0.1 0.4 0
v 0.1 0.4 -0.3
v 0.1 0.6 0
v 0.1 0.6 -0.3
v 0.2 0.3 0.2
v 0.2 0.3 -0.4
v 0.2 0.4 0.2
v 0.2 0.4 -0.4
v 0.3 0 0.3
v 0.3 0 0.2
v 0.3 0 0.1
v 0.3 0 0
v 0.3 0 -0.1
v 0.3 0 -0.2
v 0.3 0 -0.3
v 0.3 0.1 0.4
v 0.3 0.1 0.3
v 0.3 0.1 0.2
v 0.3 0.1 0.1
v 0.3 0.1 0
v 0.3 0.1 -0.1
v 0.3 0.1 -0.2
v 0.3 0.1 -0.3
v 0.3 0.1 -0.4
v 0.3 0.2 0.4
v 0.3 0.2 0.3
v 0.3 0.2 0.2
v 0.3 0.2 0.1
v 0.3 0.2 0
v 0.3 0.2 -0.2
v 0.3 0.2 -0.3
v 0.3 0.2 -0.4
v 0.3 0.3 0.4
v 0.3 0.3 -0.4
v -0.4 0.1 0.4
v -0.4 0.2 0.4
v -0.4 0.3 0.4
v -0.2 0.1 0.4
v -0.2 0.2 0.4
v -0.2 0.3 0.4
v -0.1 0.5 0.4
v -0.1 0.6 0.4
v 0 0.5 0.4
v 0 0.6 0.4
v 0.1 0.1 0.4
v 0.1 0.2 0.4
v 0.1 0.3 0.4
v 0.3 0.1 0.4
v 0.3 0.2 0.4
v 0.3 0.3 0.4
v -0.4 0 0.3
v -0.4 0.1 0.3
v -0.2 0 0.3
v -0.2 0.1 0.3
v -0.2 0.2 0.3
v -0.2 0.3 0.3
v 0.1 0 0.3
v 0.1 0.1 0.3
v 0.1 0.2 0.3
v 0.1 0.3 0.3
v 0.3 0 0.3
v 0.3 0.1 0.3
v -0.3 0.3 0.2
v -0.3 0.4 0.2
v -0.2 0.3 0.2
v 0.1 0.3 0.2
v 0.2 0.3 0.2
v 0.2 0.4 0.2
v -0.2 0.1 0.1
v -0.2 0.2 0.1
v 0.1 0.1 0.1
v 0.1 0.2 0.1
v -0.2 0.4 0
v -0.2 0.6 0
v -0.1 0.5 0
v -0.1 0.6 0
v 0 0.5 0
v 0 0.6 0
v 0.1 0.4 0
v 0.1 0.6 0
v -0.4 0 -0.3
v -0.4 0.1 -0.3
v -0.2 0 -0.3
v -0.2 0.1 -0.3
v -0.2 0.2 -0.3
v -0.2 0.4 -0.3
v -0.2 0.6 -0.3
v 0.1 0 -0.3
v 0.1 0.1 -0.3
v 0.1 0.2 -0.3
v 0.1 0.4 -0.3
v 0.1 0.6 -0.3
v 0.3 0 -0.3
v 0.3 0.1 -0.3
v -0.4 0.1 -0.4
v -0.4 0.2 -0.4
v -0.4 0.3 -0.4
v -0.3 0.3 -0.4
v -0.3 0.4 -0.4
v -0.2 0.1 -0.4
v -0.2 0.2 -0.4
v -0.2 0.3 -0.4
v 0.1 0.1 -0.4
v 0.1 0.2 -0.4
v 0.1 0.3 -0.4
v 0.2 0.3 -0.4
v 0.2 0.4 -0.4
v 0.3 0.1 -0.4
v 0.3 0.2 -0.4
v 0.3 0.3 -0.4
v -0.4 0 0.3
v -0.2 0 0.3
v 0.1 0 0.3
v 0.3 0 0.3
v -0.4 0 0.2
v -0.2 0 0.2
v 0.1 0 0.2
v 0.3 0 0.2
v -0.4 0 0.1
v -0.2 0 0.1
v 0.1 0 0.1
v 0.3 0 0.1
v -0.4 0 0
v -0.2 0 0
v 0.1 0 0
v 0.3 0 0
v -0.4 0 -0.1
v -0.2 0 -0.1
v 0.1 0 -0.1
v 0.3 0 -0.1
v -0.4 0 -0.2
v -0.2 0 -0.2
v 0.1 0 -0.2
v 0.3 0 -0.2
v -0.4 0 -0.3
v -0.2 0 -0.3
v 0.1 0 -0.3
v 0.3 0 -0.3
v -0.4 0.1 0.4
v -0.2 0.1 0.4
v 0.1 0.1 0.4
v 0.3 0.1 0.4
v -0.4 0.1 0.3
v -0.2 0.1 0.3
v 0.1 0.1 0.3
v 0.3 0.1 0.3
v -0.2 0.1 0.1
v 0.1 0.1 0.1
v -0.2 0.1 0
v 0.1 0.1 0
v -0.2 0.1 -0.1
v 0.1 0.1 -0.1
v -0.2 0.1 -0.2
v 0.1 0.1 -0.2
v -0.4 0.1 -0.3
v -0.2 0.1 -0.3
v 0.1 0.1 -0.3
v 0.3 0.1 -0.3
v -0.4 0.1 -0.4
v -0.2 0.1 -0.4
v 0.1 0.1 -0.4
v 0.3 0.1 -0.4
v -0.2 0.2 0.3
v 0.1 0.2 0.3
v -0.2 0.2 0.1
v 0.1 0.2 0.1
v -0.2 0.2 -0.3
v 0.1 0.2 -0.3
v -0.2 0.2 -0.4
v 0.1 0.2 -0.4
v -0.1 0.5 0.4
v 0 0.5 0.4
v -0.1 0.5 0.3
v 0 0.5 0.3
v -0.1 0.5 0
v 0 0.5 0
v -0.4 0.3 0.4
v -0.2 0.3 0.4
v 0.1 0.3 0.4
v 0.3 0.3 0.4
v -0.2 0.3 0.3
v 0.1 0.3 0.3
v -0.3 0.3 0.2
v -0.2 0.3 0.2
v 0.1 0.3 0.2
v 0.2 0.3 0.2
v -0.4 0.3 -0.4
v -0.3 0.3 -0.4
v 0.2 0.3 -0.4
v 0.3 0.3 -0.4
v -0.3 0.4 0.2
v 0.2 0.4 0.2
v -0.2 0.4 0
v 0.1 0.4 0
v -0.2 0.4 -0.3
v 0.1 0.4 -0.3
v -0.3 0.4 -0.4
v 0.2 0.4 -0.4
v -0.1 0.6 0.4
v 0 0.6 0.4
v -0.1 0.6 0.3
v 0 0.6 0.3
v -0.2 0.6 0
v -0.1 0.6 0
v 0 0.6 0
v 0.1 0.6 0
v -0.2 0.6 -0.3
v 0.1 0.6 -0.3

# faces
f 9/7/1 2/7/1 1/7/1
f 10/6/1 3/6/1 2/6/1
f 10/7/1 2/7/1 9/7/1
f 11/7/1 4/7/1 3/7/1
f 11/6/1 3/6/1 10/6/1
f 12/6/1 5/6/1 4/6/1
f 12/7/1 4/7/1 11/7/1
f 13/7/1 6/7/1 5/7/1
f 13/6/1 5/6/1 12/6/1
f 14/6/1 7/6/1 6/6/1
f 14/7/1 6/7/1 13/7/1
f 15/6/1 7/6/1 14/6/1
f 17/6/1 9/6/1 8/6/1
f 18/5/1 10/5/1 9/5/1
f 18/6/1 9/6/1 17/6/1
f 19/1/1 11/1/1 10/1/1
f 19/5/1 10/5/1 18/5/1
f 20/5/1 12/5/1 11/5/1
f 20/1/1 11/1/1 19/1/1
f 21/1/1 13/1/1 12/1/1
f 21/5/1 12/5/1 20/5/1
f 21/1/1 14/1/1 13/1/1
f 22/5/1 15/5/1 14/5/1
f 22/1/1 14/1/1 21/1/1
f 23/7/1 16/7/1 15/7/1
f 23/5/1 15/5/1 22/5/1
f 24/7/1 16/7/1 23/7/1
f 25/2/1 20/2/1 19/2/1
f 25/2/1 22/2/1 21/2/1
f 25/2/1 24/2/1 23/2/1
f 25/2/1 23/2/1 22/2/1
f 25/2/1 21/2/1 20/2/1
f 25/2/1 18/2/1 17/2/1
f 25/2/1 19/2/1 18/2/1
f 26/2/1 24/2/1 25/2/1
f 29/2/1 28/2/1 27/2/1
f 30/2/1 28/2/1 29/2/1
f 33/2/1 32/2/1 31/2/1
f 34/2/1 32/2/1 33/2/1
f 38/4/1 36/4/1 35/4/1
f 39/3/1 37/3/1 36/3/1
f 39/4/1 36/4/1 38/4/1
f 40/3/1 37/3/1 39/3/1
f 49/7/1 42/7/1 41/7/1
f 50/6/1 43/6/1 42/6/1
f 50/7/1 42/7/1 49/7/1
f 51/7/1 44/7/1 43/7/1
f 51/6/1 43/6/1 50/6/1
f 52/6/1 45/6/1 44/6/1
f 52/7/1 44/7/1 51/7/1
f 53/7/1 46/7/1 45/7/1
f 53/6/1 45/6/1 52/6/1
f 54/6/1 47/6/1 46/6/1
f 54/7/1 46/7/1 53/7/1
f 55/6/1 47/6/1 54/6/1
f 57/6/1 49/6/1 48/6/1
f 58/1/1 50/1/1 49/1/1
f 58/6/1 49/6/1 57/6/1
f 58/1/1 51/1/1 50/1/1
f 59/1/1 51/1/1 58/1/1
f 60/7/1 56/7/1 55/7/1
f 61/7/1 56/7/1 60/7/1
f 62/2/1 58/2/1 57/2/1
f 63/2/1 58/2/1 62/2/1
f 64/7/2 65/7/2 72/7/2
f 65/6/2 66/6/2 73/6/2
f 72/7/2 65/7/2 73/7/2
f 66/7/2 67/7/2 74/7/2
f 73/6/2 66/6/2 74/6/2
f 67/6/2 68/6/2 75/6/2
f 74/7/2 67/7/2 75/7/2
f 68/7/2 69/7/2 76/7/2
f 75/6/2 68/6/2 76/6/2
f 69/6/2 70/6/2 77/6/2
f 76/7/2 69/7/2 77/7/2
f 77/6/2 70/6/2 78/6/2
f 71/6/2 72/6/2 80/6/2
f 72/1/2 73/1/2 81/1/2
f 80/6/2 72/6/2 81/6/2
f 73/1/2 74/1/2 81/1/2
f 81/1/2 74/1/2 82/1/2
f 78/7/2 79/7/2 83/7/2
f 83/7/2 79/7/2 84/7/2
f 80/2/2 81/2/2 85/2/2
f 85/2/2 81/2/2 86/2/2
f 87/4/2 88/4/2 90/4/2
f 88/3/2 89/3/2 91/3/2
f 90/4/2 88/4/2 91/4/2
f 91/3/2 89/3/2 92/3/2
f 93/2/2 94/2/2 95/2/2
f 95/2/2 94/2/2 96/2/2
f 97/2/2 98/2/2 99/2/2
f 99/2/2 98/2/2 100/2/2
f 101/7/2 102/7/2 109/7/2
f 102/6/2 103/6/2 110/6/2
f 109/7/2 102/7/2 110/7/2
f 103/7/2 104/7/2 111/7/2
f 110/6/2 103/6/2 111/6/2
f 104/6/2 105/6/2 112/6/2
f 111/7/2 104/7/2 112/7/2
f 105/7/2 106/7/2 113/7/2
f 112/6/2 105/6/2 113/6/2
f 106/6/2 107/6/2 114/6/2
f 113/7/2 106/7/2 114/7/2
f 114/6/2 107/6/2 115/6/2
f 108/6/2 109/6/2 117/6/2
f 109/5/2 110/5/2 118/5/2
f 117/6/2 109/6/2 118/6/2
f 110/1/2 111/1/2 119/1/2
f 118/5/2 110/5/2 119/5/2
f 111/5/2 112/5/2 120/5/2
f 119/1/2 111/1/2 120/1/2
f 112/1/2 113/1/2 121/1/2
f 120/5/2 112/5/2 121/5/2
f 113/1/2 114/1/2 121/1/2
f 114/5/2 115/5/2 122/5/2
f 121/1/2 114/1/2 122/1/2
f 115/7/2 116/7/2 123/7/2
f 122/5/2 115/5/2 123/5/2
f 123/7/2 116/7/2 124/7/2
f 119/2/2 120/2/2 125/2/2
f 121/2/2 122/2/2 125/2/2
f 123/2/2 124/2/2 125/2/2
f 122/2/2 123/2/2 125/2/2
f 120/2/2 121/2/2 125/2/2
f 117/2/2 118/2/2 125/2/2
f 118/2/2 119/2/2 125/2/2
f 125/2/2 124/2/2 126/2/2
f 130/6/3 128/6/3 127/6/3
f 131/2/3 129/2/3 128/2/3
f 131/6/3 128/6/3 130/6/3
f 132/2/3 129/2/3 131/2/3
f 135/4/3 134/4/3 133/4/3
f 136/4/3 134/4/3 135/4/3
f 140/6/3 138/6/3 137/6/3
f 141/2/3 139/2/3 138/2/3
f 141/6/3 138/6/3 140/6/3
f 142/2/3 139/2/3 141/2/3
f 145/7/3 144/7/3 143/7/3
f 146/7/3 144/7/3 145/7/3
f 151/3/3 148/3/3 147/3/3
f 152/3/3 148/3/3 151/3/3
f 153/7/3 150/7/3 149/7/3
f 154/7/3 150/7/3 153/7/3
f 157/2/3 156/2/3 155/2/3
f 158/2/3 156/2/3 157/2/3
f 159/2/3 156/2/3 158/2/3
f 160/2/3 156/2/3 159/2/3
f 163/3/3 162/3/3 161/3/3
f 164/3/3 162/3/3 163/3/3
f 167/2/3 166/2/3 165/2/3
f 168/2/3 166/2/3 167/2/3
f 169/2/3 167/2/3 165/2/3
f 171/2/3 169/2/3 165/2/3
f 171/2/3 170/2/3 169/2/3
f 172/2/3 170/2/3 171/2/3
f 173/6/4 174/6/4 175/6/4
f 175/6/4 174/6/4 176/6/4
f 176/3/4 177/3/4 181/3/4
f 181/3/4 177/3/4 182/3/4
f 178/2/4 179/2/4 183/2/4
f 183/2/4 179/2/4 184/2/4
f 180/6/4 181/6/4 185/6/4
f 185/6/4 181/6/4 186/6/4
f 188/2/4 189/2/4 190/2/4
f 187/7/4 188/7/4 192/7/4
f 190/2/4 191/2/4 193/2/4
f 192/7/4 188/7/4 193/7/4
f 188/2/4 190/2/4 193/2/4
f 193/2/4 191/2/4 194/2/4
f 193/3/4 194/3/4 196/3/4
f 194/2/4 191/2/4 197/2/4
f 196/3/4 194/3/4 197/3/4
f 196/2/4 197/2/4 198/2/4
f 197/2/4 191/2/4 198/2/4
f 198/2/4 191/2/4 199/2/4
f 195/7/4 196/7/4 200/7/4
f 196/2/4 198/2/4 201/2/4
f 200/7/4 196/7/4 201/7/4
f 201/2/4 198/2/4 202/2/4
f 207/7/5 204/7/5 203/7/5
f 208/7/5 204/7/5 207/7/5
f 209/7/5 206/7/5 205/7/5
f 210/7/5 206/7/5 209/7/5
f 211/6/5 208/6/5 207/6/5
f 212/6/5 208/6/5 211/6/5
f 213/6/5 210/6/5 209/6/5
f 214/6/5 210/6/5 213/6/5
f 215/7/5 212/7/5 211/7/5
f 216/7/5 212/7/5 215/7/5
f 217/7/5 214/7/5 213/7/5
f 218/7/5 214/7/5 217/7/5
f 219/6/5 216/6/5 215/6/5
f 220/6/5 216/6/5 219/6/5
f 221/6/5 218/6/5 217/6/5
f 222/6/5 218/6/5 221/6/5
f 223/7/5 220/7/5 219/7/5
f 224/7/5 220/7/5 223/7/5
f 225/7/5 222/7/5 221/7/5
f 226/7/5 222/7/5 225/7/5
f 227/6/5 224/6/5 223/6/5
f 228/6/5 224/6/5 227/6/5
f 229/6/5 226/6/5 225/6/5
f 230/6/5 226/6/5 229/6/5
f 235/6/5 232/6/5 231/6/5
f 236/6/5 232/6/5 235/6/5
f 237/6/5 234/6/5 233/6/5
f 238/6/5 234/6/5 237/6/5
f 241/3/5 240/3/5 239/3/5
f 242/3/5 240/3/5 241/3/5
f 243/3/5 242/3/5 241/3/5
f 244/3/5 242/3/5 243/3/5
f 245/3/5 244/3/5 243/3/5
f 246/3/5 244/3/5 245/3/5
f 248/3/5 246/3/5 245/3/5
f 249/3/5 246/3/5 248/3/5
f 251/7/5 248/7/5 247/7/5
f 252/7/5 248/7/5 251/7/5
f 253/7/5 250/7/5 249/7/5
f 254/7/5 250/7/5 253/7/5
f 257/3/5 256/3/5 255/3/5
f 258/3/5 256/3/5 257/3/5
f 261/3/5 260/3/5 259/3/5
f 262/3/5 260/3/5 261/3/5
f 265/4/5 264/4/5 263/4/5
f 266/4/5 264/4/5 265/4/5
f 267/3/5 266/3/5 265/3/5
f 268/3/5 266/3/5 267/3/5
f 269/2/6 270/2/6 273/2/6
f 271/2/6 272/2/6 274/2/6
f 269/2/6 273/2/6 275/2/6
f 273/3/6 274/3/6 276/3/6
f 275/2/6 273/2/6 276/2/6
f 274/2/6 272/2/6 277/2/6
f 276/3/6 274/3/6 277/3/6
f 277/2/6 272/2/6 278/2/6
f 269/2/6 275/2/6 279/2/6
f 279/2/6 275/2/6 280/2/6
f 278/2/6 272/2/6 281/2/6
f 281/2/6 272/2/6 282/2/6
f 283/2/6 284/2/6 285/2/6
f 285/2/6 284/2/6 286/2/6
f 283/2/6 285/2/6 287/2/6
f 286/2/6 284/2/6 288/2/6
f 283/2/6 287/2/6 289/2/6
f 287/2/6 288/2/6 289/2/6
f 288/2/6 284/2/6 290/2/6
f 289/2/6 288/2/6 290/2/6
f 291/4/6 292/4/6 293/4/6
f 293/4/6 292/4/6 294/4/6
f 293/3/6 294/3/6 296/3/6
f 296/3/6 294/3/6 297/3/6
f 296/2/6 297/2/6 299/2/6
f 297/2/6 298/2/6 299/2/6
f 295/2/6 296/2/6 299/2/6
f 299/2/6 298/2/6 300/2/6
